<?xml version="1.0" encoding="UTF-8"?>
<svg width="512px" height="829px" viewBox="0 0 512 829" version="1.1" xmlns="http://www.w3.org/2000/svg" xmlns:xlink="http://www.w3.org/1999/xlink">
    <title>Untitled</title>
    <g id="Page-1" stroke="none" stroke-width="1" fill="none" fill-rule="evenodd">
        <path d="M256,0 C397.384896,0 512,114.615104 512,256 C512,397.384896 397.384896,512 256,512 C114.615104,512 0,397.384896 0,256 C0,114.615104 114.615104,0 256,0 Z M256,88 C163.216162,88 88,163.216162 88,256 C88,348.783838 163.216162,424 256,424 C348.783838,424 424,348.783838 424,256 C424,163.216162 348.783838,88 256,88 Z" id="Combined-Shape" fill="#DA9551"></path>
        <path d="M490,362 L256.5,829 L23,362 L125.657485,362.002912 C156.46238,399.835016 203.409173,424 256,424 C308.590827,424 355.53762,399.835016 386.342515,362.002912 L490,362 Z" id="Combined-Shape" fill="#DA9551"></path>
    </g>
</svg>